HIERARCHY
ROOT Hips
{
    OFFSET 0.000000 0.000000 0.000000
    CHANNELS 6 Xposition Yposition Zposition Zrotation Xrotation Yrotation
    JOINT Spine
    {
        OFFSET -0.000000 14.517291 0.000000
        CHANNELS 3 Zrotation Xrotation Yrotation
        JOINT Spine1
        {
            OFFSET -0.000000 37.558300 0.000000
            CHANNELS 3 Zrotation Xrotation Yrotation
            JOINT Neck
            {
                OFFSET -0.000000 37.404057 3.400369
                CHANNELS 3 Zrotation Xrotation Yrotation
                JOINT Head
                {
                    OFFSET -0.000000 24.785618 -3.540803
                    CHANNELS 3 Zrotation Xrotation Yrotation
                    End Site
                    {
                        OFFSET -0.000000 35.408028 0.000000
                    }
                }
            }
            JOINT LeftShoulder
            {
                OFFSET 6.992933 33.973492 -0.192664
                CHANNELS 3 Zrotation Xrotation Yrotation
                JOINT LeftArm
                {
                    OFFSET 21.527611 0.000000 0.000000
                    CHANNELS 3 Zrotation Xrotation Yrotation
                    JOINT LeftForeArm
                    {
                        OFFSET 56.353916 0.000000 0.000000
                        CHANNELS 3 Zrotation Xrotation Yrotation
                        JOINT LeftHand
                        {
                            OFFSET 47.774071 0.000000 0.000000
                            CHANNELS 3 Zrotation Xrotation Yrotation
                            End Site
                            {
                                OFFSET 26.556021 0.000000 0.000000
                            }
                        }
                    }
                }
            }
            JOINT RightShoulder
            {
                OFFSET -7.065357 33.973492 -0.192664
                CHANNELS 3 Zrotation Xrotation Yrotation
                JOINT RightArm
                {
                    OFFSET -21.527611 0.000000 0.000000
                    CHANNELS 3 Zrotation Xrotation Yrotation
                    JOINT RightForeArm
                    {
                        OFFSET -56.353916 0.000000 0.000000
                        CHANNELS 3 Zrotation Xrotation Yrotation
                        JOINT RightHand
                        {
                            OFFSET -47.774071 0.000000 0.000000
                            CHANNELS 3 Zrotation Xrotation Yrotation
                            End Site
                            {
                                OFFSET -26.556021 0.000000 0.000000
                            }
                        }
                    }
                }
            }
        }
    }
    JOINT LeftUpLeg
    {
        OFFSET 17.704014 0.000000 0.000000
        CHANNELS 3 Zrotation Xrotation Yrotation
        JOINT LeftLeg
        {
            OFFSET -0.000000 -81.181816 0.000000
            CHANNELS 3 Zrotation Xrotation Yrotation
            JOINT LeftFoot
            {
                OFFSET -0.000000 -62.821102 0.000000
                CHANNELS 3 Zrotation Xrotation Yrotation
                JOINT LeftToeBase
                {
                    OFFSET -0.000000 -11.507608 26.556021
                    CHANNELS 3 Zrotation Xrotation Yrotation
                    End Site
                    {
                        OFFSET -0.000000 0.000000 7.081605
                    }
                }
            }
        }
    }
    JOINT RightUpLeg
    {
        OFFSET -17.704014 0.000000 0.000000
        CHANNELS 3 Zrotation Xrotation Yrotation
        JOINT RightLeg
        {
            OFFSET -0.000000 -81.181816 0.000000
            CHANNELS 3 Zrotation Xrotation Yrotation
            JOINT RightFoot
            {
                OFFSET -0.000000 -62.821102 0.000000
                CHANNELS 3 Zrotation Xrotation Yrotation
                JOINT RightToeBase
                {
                    OFFSET -0.000000 -11.507608 26.556021
                    CHANNELS 3 Zrotation Xrotation Yrotation
                    End Site
                    {
                        OFFSET -0.000000 0.000000 7.081605
                    }
                }
            }
        }
    }
}
MOTION
Frames:    14
Frame Time:    0.008333
13.429228    157.656891    -8.599711    -1.193513    1.548760    -36.796444    3.842470    1.302472    2.767833    -1.011725    0.720207    0.943117    16.855234    6.887188    14.836079    -10.723037    -4.289852    12.074595    0.116678    8.553628    -11.508816    -35.043400    7.416499    -35.169426    32.790642    -43.493549    -46.496304    -16.884949    -28.010441    -30.480946    -4.581944    5.876415    -1.983699    35.377476    9.767707    73.875458    7.928188    -7.437459    95.616119    12.020988    -13.989713    19.789568    20.217949    -20.883101    1.903891    -12.968955    16.339672    -5.242496    -8.362910    1.835455    43.334743    0.000000    0.000000    0.000000    -12.789596    0.067982    -5.462748    6.332667    20.012623    -7.369616    7.123561    -19.335056    -5.915458    0.000000    0.000000    0.000000    
13.388151    157.642609    -8.627735    -1.199141    1.530946    -36.767349    3.866107    1.295475    2.789339    -1.034482    0.729602    0.950567    16.834295    6.887269    14.829146    -10.722571    -4.271357    12.070984    0.102349    8.538374    -11.512821    -35.011524    7.401390    -35.207771    32.767605    -43.469337    -46.488743    -16.900248    -27.986368    -30.501131    -4.603613    5.853468    -1.956629    35.351601    9.770280    73.901001    7.923243    -7.500436    95.607536    12.051354    -14.036160    19.823444    20.222559    -20.879547    1.937475    -12.968478    16.346018    -5.240934    -8.344989    1.876688    43.291245    0.000000    0.000000    0.000000    -12.802779    0.057948    -5.704123    6.293991    20.107399    -7.311687    7.169902    -19.290693    -5.871736    0.000000    0.000000    0.000000    
13.351165    157.623566    -8.650986    -1.195318    1.507812    -36.748901    3.870085    1.298720    2.823651    -1.036107    0.723829    0.962019    16.808949    6.883910    14.821450    -10.731112    -4.249619    12.065165    0.083227    8.553100    -11.534027    -34.983593    7.334323    -35.239391    32.699017    -43.425556    -46.527042    -16.928802    -27.937962    -30.535675    -4.631526    5.852176    -1.958145    35.316761    9.765634    73.962074    7.891681    -7.563337    95.589287    12.068390    -14.059269    19.808796    20.213938    -20.870111    1.983239    -12.954556    16.350418    -5.235339    -8.340386    1.905167    43.230160    0.000000    0.000000    0.000000    -12.835092    0.038715    -5.922066    6.275702    20.208656    -7.280749    7.172765    -19.247379    -5.806155    0.000000    0.000000    0.000000    
13.313232    157.604111    -8.673930    -1.186777    1.483739    -36.742661    3.870193    1.293842    2.858007    -1.043020    0.724301    0.973419    16.801979    6.902788    14.820472    -10.760081    -4.250916    12.062438    0.072284    8.567801    -11.552157    -34.953533    7.283635    -35.264248    32.651890    -43.394905    -46.553017    -16.935251    -27.910278    -30.538902    -4.652733    5.830828    -1.936383    35.353130    9.715077    73.987396    7.926824    -7.502860    95.566284    12.015595    -14.041842    19.824163    20.204311    -20.860567    2.055430    -12.938482    16.367952    -5.252216    -8.318415    1.931782    43.179993    0.000000    0.000000    0.000000    -12.873439    0.006618    -6.107273    6.267042    20.322456    -7.219716    7.145334    -19.205822    -5.796128    0.000000    0.000000    0.000000    
13.272113    157.581284    -8.695999    -1.182242    1.451142    -36.740162    3.873072    1.302827    2.883062    -1.062270    0.724052    0.981989    16.798386    6.888482    14.831207    -10.768200    -4.213922    12.073766    0.072262    8.563352    -11.550704    -34.934055    7.235510    -35.279289    32.579449    -43.368092    -46.603848    -16.933956    -27.892769    -30.537369    -4.665971    5.812249    -1.915737    35.349392    9.693916    74.028198    7.902232    -7.516654    95.555412    12.019527    -14.025527    19.832340    20.195486    -20.838881    2.111638    -12.926122    16.377954    -5.265535    -8.298683    1.955408    43.133923    0.000000    0.000000    0.000000    -12.907245    -0.027853    -6.305301    6.227388    20.466326    -7.066409    7.099149    -19.169222    -5.848253    0.000000    0.000000    0.000000    
13.232941    157.555908    -8.722297    -1.174949    1.421665    -36.736679    3.894427    1.311416    2.906655    -1.119263    0.722537    0.990371    16.827658    6.867439    14.846069    -10.795048    -4.168785    12.082885    0.100325    8.555764    -11.551270    -34.911564    7.198380    -35.291317    32.506248    -43.348179    -46.651764    -16.931208    -27.883511    -30.548410    -4.658396    5.790703    -1.907725    35.356503    9.668344    74.071533    7.898117    -7.512352    95.547180    12.024473    -14.014329    19.839867    20.185110    -20.822906    2.151710    -12.914395    16.382597    -5.276212    -8.300796    1.964323    43.111279    0.000000    0.000000    0.000000    -12.944137    -0.074431    -6.452557    6.219002    20.500967    -6.968881    7.000075    -19.017115    -5.930876    0.000000    0.000000    0.000000    
13.195393    157.532486    -8.744281    -1.168063    1.388572    -36.740192    3.907856    1.325111    2.932843    -1.150847    0.711556    0.999392    16.829607    6.877799    14.856183    -10.815362    -4.160138    12.092125    0.095453    8.553042    -11.563236    -34.877155    7.150155    -35.283607    32.436661    -43.314808    -46.687244    -16.916197    -27.863499    -30.558062    -4.673320    5.788382    -1.901277    35.363323    9.645141    74.129974    7.886405    -7.526094    95.536392    12.025192    -14.010007    19.871794    20.172815    -20.797668    2.169324    -12.909904    16.381788    -5.288148    -8.271955    1.986976    43.094772    0.000000    0.000000    0.000000    -12.985017    -0.123440    -6.573314    6.234431    20.660316    -6.892040    6.934420    -19.016312    -6.055056    0.000000    0.000000    0.000000    
13.152287    157.506516    -8.769000    -1.155693    1.362289    -36.738323    3.922353    1.315509    2.949082    -1.181632    0.710301    1.004944    16.812046    6.756799    14.926105    -10.705821    -3.949396    12.186696    0.088713    8.546093    -11.585921    -34.813316    7.147750    -35.253044    32.420593    -43.320461    -46.661682    -16.935812    -27.874146    -30.601046    -4.697085    5.781783    -1.873033    35.378765    9.621829    74.165916    7.869263    -7.543860    95.534286    12.008843    -14.013941    19.847385    20.160398    -20.780193    2.169170    -12.907233    16.370630    -5.280911    -8.277911    1.988177    43.095623    0.000000    0.000000    0.000000    -13.022538    -0.187921    -6.690136    6.242106    20.846008    -6.811699    6.874156    -19.057516    -6.174922    0.000000    0.000000    0.000000    
13.106875    157.479782    -8.799446    -1.143609    1.329599    -36.734047    3.908354    1.325137    2.956959    -1.183318    0.705764    1.007560    16.795988    6.881438    14.883705    -10.811967    -4.132343    12.127626    0.083834    8.529028    -11.587093    -34.761559    7.160559    -35.240227    32.437382    -43.326099    -46.615704    -16.956993    -27.878929    -30.629244    -4.716554    5.760081    -1.868816    35.367912    9.622622    74.222916    7.835603    -7.587781    95.526855    12.057595    -14.010359    19.853111    20.146723    -20.761684    2.179064    -12.902022    16.368584    -5.294619    -8.287497    1.981497    43.099987    0.000000    0.000000    0.000000    -13.059759    -0.249839    -6.814827    6.247256    21.032940    -6.715726    6.804789    -19.092340    -6.314042    0.000000    0.000000    0.000000    
13.048840    157.463837    -8.846656    -1.126356    1.328459    -36.711842    3.875203    1.289541    2.953422    -1.136753    0.713221    1.005705    16.777882    6.899739    14.890656    -10.832025    -4.146579    12.134505    0.058641    8.528740    -11.597283    -34.693890    7.154508    -35.227879    32.437897    -43.326523    -46.571331    -16.956081    -27.890167    -30.650528    -4.749241    5.755244    -1.854691    35.373116    9.586995    74.275185    7.820866    -7.596593    95.512787    12.065574    -13.999823    19.850529    20.154963    -20.778250    2.160395    -12.906635    16.351048    -5.265825    -8.306382    2.013523    43.091484    0.000000    0.000000    0.000000    -13.066128    -0.353048    -6.968008    6.216687    21.290838    -6.676961    6.772787    -19.107635    -6.353772    0.000000    0.000000    0.000000    
13.001501    157.435074    -8.883006    -1.112093    1.301724    -36.707775    3.853116    1.279897    2.948296    -1.117862    0.724054    1.003760    16.755529    6.904392    14.904086    -10.839444    -4.147804    12.149850    0.047853    8.522959    -11.598690    -34.635185    7.160141    -35.204502    32.452927    -43.335106    -46.523216    -16.928793    -27.914139    -30.663601    -4.781515    5.732444    -1.827490    35.376362    9.561909    74.320015    7.791245    -7.612222    95.501450    12.088889    -13.980176    19.825640    20.149994    -20.764757    2.156312    -12.912210    16.343390    -5.248969    -8.312990    2.023010    43.076378    0.000000    0.000000    0.000000    -13.096391    -0.401878    -7.051762    6.188771    21.444849    -6.595266    6.728381    -19.123875    -6.425534    0.000000    0.000000    0.000000    
12.953484    157.407379    -8.919052    -1.087656    1.270938    -36.707977    3.818121    1.271381    2.945652    -1.100863    0.730257    1.002595    16.721170    6.905268    14.918139    -10.815556    -4.146120    12.172110    0.044339    8.530246    -11.590632    -34.588490    7.135621    -35.206688    32.470924    -43.320461    -46.464771    -16.939741    -27.901022    -30.686398    -4.810428    5.726859    -1.800425    35.375633    9.522674    74.367180    7.791414    -7.625492    95.498734    12.125562    -13.985044    19.840050    20.133615    -20.748337    2.165329    -12.912101    16.323324    -5.214268    -8.315992    2.039794    43.046288    0.000000    0.000000    0.000000    -13.141231    -0.487527    -7.167339    6.201769    21.650675    -6.618088    6.664263    -19.139662    -6.469332    0.000000    0.000000    0.000000    
12.909457    157.378174    -8.957239    -1.060865    1.239645    -36.697411    3.800731    1.259385    2.945057    -1.121237    0.741240    1.002449    16.752192    6.914795    14.926353    -10.862714    -4.146926    12.171041    0.062969    8.520797    -11.608217    -34.540009    7.136693    -35.195255    32.491524    -43.337135    -46.402184    -16.932575    -27.935114    -30.677322    -4.815128    5.698620    -1.790393    35.374176    9.505769    74.400070    7.786933    -7.649502    95.500946    12.120399    -14.006482    19.826307    20.112310    -20.745510    2.151710    -12.917776    16.317350    -5.183298    -8.316790    2.063990    43.020248    0.000000    0.000000    0.000000    -13.200650    -0.579067    -7.287245    6.238507    21.875481    -6.657685    6.586949    -19.138977    -6.497591    0.000000    0.000000    0.000000    
12.859623    157.345627    -9.001712    -1.042574    1.208095    -36.685352    3.783275    1.257727    2.933550    -1.128624    0.746709    0.998606    16.772602    6.947572    14.928883    -10.918314    -4.182025    12.163895    0.067240    8.500288    -11.606234    -34.500866    7.101623    -35.183537    32.464264    -43.301640    -46.366772    -16.919676    -27.914301    -30.700693    -4.829737    5.654623    -1.760146    35.374161    9.496904    74.417679    7.769326    -7.669938    95.491112    12.096608    -14.008080    19.846239    20.100859    -20.737007    2.161303    -12.916846    16.313330    -5.172929    -8.322437    2.073125    42.997494    0.000000    0.000000    0.000000    -13.255890    -0.671088    -7.418386    6.285500    22.105556    -6.709690    6.501434    -19.134314    -6.535813    0.000000    0.000000    0.000000    
